<svg xmlns="http://www.w3.org/2000/svg" viewBox="0 0 136.121 100"><defs><clipPath id="a"><path fill="none" d="M0 0h136.121v100H0z"/></clipPath></defs><g fill="#fff"><path d="M68.896 12.757c-34.491 0-62.451 16.663-62.451 37.218S34.405 87.19 68.896 87.19s62.451-16.663 62.451-37.218-27.96-37.218-62.451-37.218M111.096 73c-11.212 6.682-26.2 10.361-42.2 10.361S37.907 79.681 26.696 73c-10.591-6.31-16.421-14.487-16.421-23.025s5.83-16.718 16.421-23.029c11.211-6.682 26.2-10.361 42.2-10.361s30.988 3.68 42.2 10.361c10.591 6.312 16.423 14.49 16.423 23.029s-5.833 16.715-16.423 23.028"/><path d="M110.606 27.821c-11.065-6.595-25.878-10.226-41.71-10.226s-30.645 3.631-41.71 10.226C16.897 33.953 11.23 41.839 11.23 50.028s5.667 16.075 15.956 22.211c11.065 6.594 25.878 10.226 41.71 10.226s30.645-3.632 41.71-10.226c10.29-6.132 15.957-14.018 15.957-22.207s-5.667-16.075-15.957-22.207M41.755 67.561s-6.3-.45-10.952-7.5-4.351-16.053-1.8-21.154 5.851-8.4 10.2-9.752c.162-.05.323-.093.483-.133 4.2-1.094 8.506.535 10.181 2.534 1.491 1.78.291 5.5-1.54 7.117a7.27 7.27 0 0 1-.5.46c-1.414 1.2-3.014 2.2-4.146 3.156h.007a3.688 3.688 0 0 0 .506 5.97 5.274 5.274 0 0 0 2.508.546h6.857A23.916 23.916 0 0 0 57.37 60.76a18.664 18.664 0 0 0 7.63 6.8Zm27.635 0s-6.3-.45-10.952-7.5a20.796 20.796 0 0 1-.792-1.309l-.023-.041a17.841 17.841 0 0 1-.307-.578l-.07-.134c-.091-.18-.179-.362-.264-.543-.028-.06-.057-.119-.084-.179-.081-.175-.158-.35-.233-.527l-.086-.2q-.108-.259-.208-.519l-.082-.216a21.184 21.184 0 0 1-.428-1.251l-.068-.227a33.08 33.08 0 0 1-.148-.514l-.058-.223a19.936 19.936 0 0 1-.132-.522 6.875 6.875 0 0 1-.043-.2q-.194-.852-.323-1.7l-.048-.313c-.018-.127-.032-.254-.047-.381s-.032-.251-.045-.377-.023-.239-.034-.358-.024-.264-.034-.4c-.009-.114-.015-.228-.022-.342a28.637 28.637 0 0 1-.022-.408l-.012-.328c0-.139-.007-.277-.009-.415V47.7a19.864 19.864 0 0 1 1.827-8.8c2.551-5.1 5.851-8.4 10.2-9.752s8.852.381 10.652 2.4a8.229 8.229 0 0 1 1.618 8.117 6.623 6.623 0 0 1-1.482 2.323 9.676 9.676 0 0 1-1.2.908 4.23 4.23 0 0 1-3.253.4 3.89 3.89 0 0 1-.492-.183 4.569 4.569 0 0 1-2.937-4.265 4.648 4.648 0 0 1 1.218-3.1 1.922 1.922 0 0 0-.071-2.546c-.6-.6-4.951-1.65-4.951 6.151a9.3 9.3 0 0 0 8.2 9.441l.2.011h6.857a23.913 23.913 0 0 0 3.811 11.955 18.666 18.666 0 0 0 7.63 6.8Zm40.689-.639a.64.64 0 0 1-.639.639H97.026s-6.3-.45-10.952-7.5-4.351-16.054-1.8-21.154 5.851-8.4 10.2-9.752 8.852.381 10.652 2.4a8.228 8.228 0 0 1 1.618 8.117 6.633 6.633 0 0 1-1.482 2.323 9.676 9.676 0 0 1-1.2.908 4.231 4.231 0 0 1-3.254.4 3.89 3.89 0 0 1-.492-.183 4.57 4.57 0 0 1-2.937-4.266 4.648 4.648 0 0 1 1.217-3.1 1.921 1.921 0 0 0-.071-2.545c-.6-.6-4.951-1.65-4.951 6.151s7.173 9.452 8.4 9.452h7.462a.64.64 0 0 1 .639.639Z"/><path d="M43.255 33.203c-.534-.6-4.951-1.65-4.951 6.151 0 .662-.055 2.4.147 1.856.672-1.82 4.654-5.156 4.654-5.156a2.364 2.364 0 0 0 .15-2.851m86.881-5.172 3.79-1.528.029.033-2.028 3.548Zm-3.944-.155a.8.8 0 0 0-.058 1.152.839.839 0 0 0 .987.222l1.508-.62 2.49 2.854-.809 1.421a.839.839 0 0 0 .086 1.007.8.8 0 0 0 1.15.1 1.051 1.051 0 0 0 .2-.254l4.117-7.381a1.2 1.2 0 0 0-.021-1.509 1.183 1.183 0 0 0-1.482-.214l-7.89 3.055a1.047 1.047 0 0 0-.28.167m-2.383-1.946a.861.861 0 1 0 1.311 1.112l5.336-6.286a.861.861 0 1 0-1.311-1.113Zm-1.316-6.872-1.76-1.168a.077.077 0 0 1-.025-.121l1.458-2.2a.077.077 0 0 1 .121-.025l1.76 1.168a1.41 1.41 0 1 1-1.554 2.343m-1.131 6a.792.792 0 0 0 1.143-.221 1.116 1.116 0 0 0 .181-.509l.32-3.407a2.81 2.81 0 0 0 2.943-1.247 2.95 2.95 0 0 0-1-4.212l-2.671-1.772a.719.719 0 0 0-1.07.217l-4.592 6.919a.861.861 0 1 0 1.432.95l1.708-2.573a.077.077 0 0 1 .121-.024l1.545 1.024-.464 3.941a.886.886 0 0 0 .406.916M116.547 8.24a.82.82 0 0 0-.413.383.6.6 0 0 0 .276.8.71.71 0 0 0 .619-.007l1.174-.45a.715.715 0 0 0 .406-.37.628.628 0 0 0-.316-.85.665.665 0 0 0-.567 0Zm-4.747 7.007 2.893-2.887.039.019-.481 4.058Zm-3.691 1.4a.8.8 0 0 0 .4 1.084.839.839 0 0 0 .995-.181l1.147-1.16 3.407 1.655-.19 1.625a.839.839 0 0 0 .473.894.8.8 0 0 0 1.1-.358 1.042 1.042 0 0 0 .088-.314l.908-8.4a1.2 1.2 0 0 0-.609-1.381 1.183 1.183 0 0 0-1.449.381l-6.079 5.889a1.047 1.047 0 0 0-.192.263m-1.232-8.586a.077.077 0 0 1 .052.112l-2.565 6.989a.86.86 0 1 0 1.614.592l2.565-6.988a.077.077 0 0 1 .112-.052l1.846.678a.778.778 0 1 0 .532-1.45l-5.47-2.008a.778.778 0 1 0-.532 1.45Zm-7.939 5.3a.861.861 0 1 0 1.646.495l2.374-7.9a.861.861 0 1 0-1.646-.495Zm-9.065-2.212a.8.8 0 1 0 1.547.357l1.389-6.019.057.013 2.146 6.834c.188.612.435.968.931 1.082a.931.931 0 0 0 1.169-.792l1.838-7.963A.8.8 0 1 0 97.4 4.3l-1.389 6.019-.043-.01-2.158-6.833c-.188-.612-.435-.968-.917-1.079a.934.934 0 0 0-1.184.788Zm-5.626.069a3.436 3.436 0 0 0 4.131-3.094l.784-5.539a.86.86 0 1 0-1.7-.241l-.78 5.51a1.939 1.939 0 1 1-3.823-.541l.78-5.51a.861.861 0 1 0-1.7-.241L81.149 7.1a3.433 3.433 0 0 0 3.1 4.116M70.051 9.15a.8.8 0 1 0 1.586.078L71.9 3.8h.073L73.594 8c.232.609.486.8.908.817s.678-.142.969-.725l2.006-4.015h.073l-.267 5.428a.8.8 0 1 0 1.586.078l.4-8.163a.921.921 0 0 0-.9-1.08c-.509-.025-.756.24-1.048.838l-2.649 5.37h-.058L72.439.939c-.247-.625-.466-.913-.975-.939a.931.931 0 0 0-1.011.986Zm-3.6-4.1a7.078 7.078 0 0 1-.109 2.279 1.917 1.917 0 0 1-3.624.151 7.079 7.079 0 0 1-.3-2.262 7.074 7.074 0 0 1 .109-2.279 1.917 1.917 0 0 1 3.624-.151 7.074 7.074 0 0 1 .3 2.262m-5.778.24a7.95 7.95 0 0 0 .4 2.724 3.729 3.729 0 0 0 6.943-.288 7.96 7.96 0 0 0 .184-2.749 7.953 7.953 0 0 0-.4-2.724 3.729 3.729 0 0 0-6.943.288 7.95 7.95 0 0 0-.178 2.749m-7.7 3.565a3.345 3.345 0 0 0 3.695 1.97 3.228 3.228 0 0 0 2.776-1.956 1.025 1.025 0 0 0 .087-.509.766.766 0 0 0-.874-.689.886.886 0 0 0-.7.552 1.865 1.865 0 0 1-3.39-.01 7.351 7.351 0 0 1-.455-2.235 7.348 7.348 0 0 1-.084-2.278 1.865 1.865 0 0 1 3.294-.8.886.886 0 0 0 .807.374.762.762 0 0 0 .69-.859 1.034 1.034 0 0 0-.2-.489A3.228 3.228 0 0 0 55.466.668a3.346 3.346 0 0 0-3.134 2.776 8.521 8.521 0 0 0 .044 2.738 8.515 8.515 0 0 0 .594 2.673m-10.2.581.438-4.063.042-.01 2.174 3.46Zm-1.995 3.406a.8.8 0 0 0 .989.594.839.839 0 0 0 .661-.765l.164-1.623 3.691-.852.872 1.383a.839.839 0 0 0 .929.4.8.8 0 0 0 .629-.968 1.048 1.048 0 0 0-.129-.3L44.012 3.6a1.2 1.2 0 0 0-1.341-.692c-.582.134-.812.561-.888 1.207l-1.022 8.4a1.052 1.052 0 0 0 .015.325m-6.75 2.033a.8.8 0 0 0 1.085.548l4.609-1.511a.778.778 0 1 0-.482-1.467l-3.709 1.218a.078.078 0 0 1-.11-.056L33.1 6.533a.861.861 0 1 0-1.633.536Zm-4.859-2.519a7.084 7.084 0 0 1 .729 2.162 1.917 1.917 0 0 1-3.32 1.461 7.081 7.081 0 0 1-1.1-2 7.084 7.084 0 0 1-.729-2.162 1.917 1.917 0 0 1 3.32-1.461 7.081 7.081 0 0 1 1.1 2m-5.294 2.33a7.949 7.949 0 0 0 1.37 2.389 3.368 3.368 0 0 0 4.13.777 3.374 3.374 0 0 0 2.23-3.576 7.95 7.95 0 0 0-.837-2.624A7.944 7.944 0 0 0 29.4 9.263a3.374 3.374 0 0 0-4.143-.771 3.369 3.369 0 0 0-2.217 3.57 7.953 7.953 0 0 0 .837 2.624m-5.814 6.444a3.346 3.346 0 0 0 4.175.314 3.229 3.229 0 0 0 1.753-2.909 1.025 1.025 0 0 0-.126-.5.766.766 0 0 0-1.077-.279.886.886 0 0 0-.416.786 1.865 1.865 0 0 1-3.107 1.358 7.35 7.35 0 0 1-1.317-1.862 7.353 7.353 0 0 1-.99-2.054 1.865 1.865 0 0 1 2.693-2.059.886.886 0 0 0 .889.017.762.762 0 0 0 .286-1.065 1.039 1.039 0 0 0-.384-.365 3.228 3.228 0 0 0-3.394.122 3.346 3.346 0 0 0-1.75 3.8 8.532 8.532 0 0 0 1.144 2.488 8.527 8.527 0 0 0 1.621 2.207m-2.907 5.13c1.939-1.564 2.12-3.358 1.013-4.73-1.061-1.315-2.407-1.428-4.156-.372l-.431.254c-1.139.676-1.8.647-2.248.091a1.35 1.35 0 0 1 .392-2.02 4.136 4.136 0 0 1 1.723-.811 1.394 1.394 0 0 0 .5-.236.735.735 0 0 0 .114-1.065.779.779 0 0 0-.779-.27 5.311 5.311 0 0 0-2.518 1.171c-1.576 1.271-1.855 3.013-.73 4.408 1.034 1.281 2.4 1.375 4.119.326l.443-.264c1.187-.733 1.806-.615 2.255-.06.54.669.352 1.55-.6 2.319a4.311 4.311 0 0 1-2.228.881 1.1 1.1 0 0 0-.531.223.78.78 0 0 0-.107 1.1.868.868 0 0 0 .807.3 5.721 5.721 0 0 0 2.961-1.248M6.68 33.515a.719.719 0 0 0 1.088-.09l3.191-3.769a.778.778 0 1 0-1.179-1l-2.523 2.98a.077.077 0 0 1-.123.01l-1.912-1.617a.077.077 0 0 1-.01-.123l2.052-2.424a.778.778 0 1 0-1.179-1l-2.052 2.426a.077.077 0 0 1-.123.01l-1.845-1.562a.077.077 0 0 1-.01-.123l2.523-2.98a.778.778 0 1 0-1.179-1L.207 27.024A.719.719 0 0 0 .3 28.112Zm103.115 60.226c2.36-.8 3.15-2.418 2.586-4.088-.541-1.6-1.764-2.172-3.771-1.785l-.492.09c-1.3.24-1.912-.015-2.14-.691-.242-.718.072-1.424 1.066-1.76a4.132 4.132 0 0 1 1.9-.165 1.392 1.392 0 0 0 .553-.048.735.735 0 0 0 .475-.96.779.779 0 0 0-.638-.523 5.316 5.316 0 0 0-2.768.228c-1.918.648-2.783 2.186-2.209 3.884.527 1.56 1.778 2.121 3.752 1.731l.506-.094c1.367-.278 1.907.047 2.136.723.275.815-.206 1.577-1.365 1.968a4.309 4.309 0 0 1-2.4.056 1.1 1.1 0 0 0-.576.025.78.78 0 0 0-.48.993.869.869 0 0 0 .652.564 5.722 5.722 0 0 0 3.21-.147m-10.849-.821.372-4.07.043-.01 2.229 3.425Zm-1.94 3.437a.8.8 0 0 0 1 .578.839.839 0 0 0 .648-.776l.138-1.625 3.676-.911.895 1.369a.838.838 0 0 0 .935.384.8.8 0 0 0 .613-.978 1.043 1.043 0 0 0-.134-.3l-4.685-7.034a1.2 1.2 0 0 0-1.352-.671c-.58.144-.8.575-.868 1.221l-.886 8.415a1.051 1.051 0 0 0 .02.325m-9.011 1.547a.8.8 0 1 0 1.564-.271l-1.055-6.086.058-.01 4.629 5.467c.41.491.776.723 1.278.636a.931.931 0 0 0 .771-1.183l-1.4-8.053a.8.8 0 1 0-1.565.271l1.055 6.086-.043.008-4.643-5.464c-.41-.491-.776-.723-1.264-.639a.935.935 0 0 0-.785 1.186Zm-4.139.39a.861.861 0 1 0 1.707-.2l-.967-8.189a.86.86 0 1 0-1.707.2Zm-5.467-4.008-1.948.125a.077.077 0 0 1-.093-.081l-.185-2.879a.077.077 0 0 1 .081-.093l1.948-.125a1.534 1.534 0 1 1 .2 3.053m-2.548 5.551a.838.838 0 0 0 .8-.957l-.181-2.821a.077.077 0 0 1 .082-.093l2.05-.132a3.086 3.086 0 1 0-.4-6.15l-3.1.2a.715.715 0 0 0-.706.819l.533 8.287a.838.838 0 0 0 .916.846m-12.164-.711a.8.8 0 1 0 1.588.006l.02-5.434h.073l1.805 4.115c.26.6.521.774.944.776s.671-.173.935-.769l1.822-4.1h.073l-.02 5.434a.8.8 0 1 0 1.588.006l.031-8.174a.921.921 0 0 0-.943-1.038c-.51 0-.744.274-1.009.885l-2.41 5.483h-.058l-2.427-5.5c-.274-.613-.506-.891-1.016-.893a.931.931 0 0 0-.965 1.031Zm-6.941-3.34 1.642-3.742h.043l1.03 3.955Zm-2.929 2.646a.8.8 0 0 0 .764.865.839.839 0 0 0 .861-.531l.645-1.5 3.776.3.415 1.582a.839.839 0 0 0 .766.66.8.8 0 0 0 .891-.733 1.042 1.042 0 0 0-.033-.324l-2.215-8.156c-.169-.627-.475-1.017-1.07-1.064s-.944.29-1.21.883l-3.507 7.7a1.038 1.038 0 0 0-.083.315m-7.567-2.575a3.345 3.345 0 0 0 3.069 2.847 3.227 3.227 0 0 0 3.183-1.183 1.025 1.025 0 0 0 .214-.47.766.766 0 0 0-.669-.889.886.886 0 0 0-.816.355 1.865 1.865 0 0 1-3.275-.875 13.752 13.752 0 0 1 .637-4.5 1.865 1.865 0 0 1 3.389.068.886.886 0 0 0 .685.568.762.762 0 0 0 .887-.655 1.034 1.034 0 0 0-.073-.525 3.228 3.228 0 0 0-2.73-2.02 3.346 3.346 0 0 0-3.739 1.884 13.54 13.54 0 0 0-.764 5.4m-12.181-1.213a.719.719 0 0 0 .564.935l4.794 1.188a.778.778 0 1 0 .372-1.5l-3.79-.939a.077.077 0 0 1-.064-.106l.6-2.432a.077.077 0 0 1 .106-.064l3.083.764a.778.778 0 1 0 .372-1.5l-3.083-.764a.077.077 0 0 1-.064-.106l.582-2.347a.077.077 0 0 1 .106-.064l3.79.939a.778.778 0 1 0 .372-1.5l-4.794-1.188a.719.719 0 0 0-.935.564Zm-7-3.1 2.073-6.311a.077.077 0 0 1 .11-.056l1.246.409c1.094.359 1.663.96 1.662 1.941a11.552 11.552 0 0 1-1.3 3.959 1.988 1.988 0 0 1-2.49.577l-1.246-.409a.077.077 0 0 1-.056-.11m-1.906.294a.708.708 0 0 0 .5.961l2.311.76c1.91.627 3.3.331 4.266-.991a12.467 12.467 0 0 0 1.673-5.093c0-1.64-.938-2.7-2.847-3.328l-2.317-.763a.719.719 0 0 0-.974.492Z"/></g></svg>