<svg xmlns="http://www.w3.org/2000/svg" xmlns:xlink="http://www.w3.org/1999/xlink" width="241.38" height="65" viewBox="0 0 241.38 65"><defs><clipPath id="a"><rect width="241.38" height="65" transform="translate(0 0)" fill="none"/></clipPath></defs><g transform="translate(0 0.003)"><g transform="translate(0 -0.003)" clip-path="url(#a)"><path d="M109.07,32.5c0,17.949-24.416,32.5-54.535,32.5S0,50.445,0,32.5,24.416,0,54.535,0,109.07,14.547,109.07,32.5" transform="translate(0 0.004)" fill="#002581"/><path d="M157.318,164.444c-13.973,0-27.06-3.213-36.851-9.048-9.248-5.512-14.341-12.653-14.341-20.11s5.093-14.6,14.341-20.11c9.79-5.835,22.878-9.048,36.851-9.048s27.06,3.213,36.851,9.048c9.248,5.512,14.341,12.653,14.341,20.11s-5.093,14.6-14.341,20.11c-9.791,5.834-22.878,9.048-36.851,9.048" transform="translate(-102.784 -102.786)" fill="#fe0"/><path d="M157.318,164.444c-13.973,0-27.06-3.213-36.851-9.048-9.248-5.512-14.341-12.653-14.341-20.11s5.093-14.6,14.341-20.11c9.79-5.835,22.878-9.048,36.851-9.048s27.06,3.213,36.851,9.048c9.248,5.512,14.341,12.653,14.341,20.11s-5.093,14.6-14.341,20.11c-9.791,5.834-22.878,9.048-36.851,9.048" transform="translate(-102.784 -102.786)" fill="#fe0"/><path d="M183.013,190.775c-13.825,0-26.76-3.171-36.423-8.93-8.985-5.355-13.934-12.242-13.934-19.392s4.949-14.037,13.934-19.392c9.663-5.759,22.6-8.93,36.423-8.93s26.76,3.171,36.423,8.93c8.985,5.355,13.934,12.242,13.934,19.392s-4.949,14.037-13.934,19.392c-9.663,5.758-22.6,8.93-36.423,8.93" transform="translate(-128.478 -129.906)" fill="#002581"/><path d="M601.045,469.18a20.881,20.881,0,0,1-3.328-10.439H591.73a4.6,4.6,0,0,1-2.19-.477,3.22,3.22,0,0,1-.442-5.213l-.006,0c.989-.838,2.386-1.709,3.621-2.756.156-.132.3-.266.433-.4,1.6-1.413,2.647-4.66,1.345-6.214-1.462-1.746-5.218-3.169-8.89-2.213-.14.035-.28.072-.422.116-3.8,1.179-6.682,4.062-8.909,8.516s-2.489,12.315,1.572,18.473,9.564,6.551,9.564,6.551h20.3a16.3,16.3,0,0,1-6.663-5.937m-16.524-17.073c-.177.479-.128-1.042-.128-1.62,0-6.813,3.857-5.9,4.323-5.372a2.064,2.064,0,0,1-.131,2.489s-3.477,2.913-4.064,4.5" transform="translate(-556.573 -427.259)" fill="#fe0"/><path d="M2131.278,474.737v-15.26h0a.558.558,0,0,0-.558-.558H2124.2a8.122,8.122,0,0,1-7.337-8.254c0-6.813,3.8-5.893,4.323-5.372a1.678,1.678,0,0,1,.062,2.223,4.057,4.057,0,0,0-1.063,2.706,3.99,3.99,0,0,0,2.565,3.725,3.389,3.389,0,0,0,.429.16,3.694,3.694,0,0,0,2.841-.346,8.464,8.464,0,0,0,1.049-.793,5.782,5.782,0,0,0,1.294-2.029,7.185,7.185,0,0,0-1.413-7.088c-1.572-1.764-5.5-3.276-9.3-2.1s-6.681,4.061-8.909,8.516-2.489,12.315,1.573,18.473,9.564,6.551,9.564,6.551h10.84a.558.558,0,0,0,.558-.558Z" transform="translate(-2040.781 -427.437)" fill="#fe0"/><path d="M1367.368,469.357a20.88,20.88,0,0,1-3.328-10.439h-5.987l-.171-.01a8.123,8.123,0,0,1-7.163-8.244c0-6.813,3.8-5.893,4.323-5.372a1.677,1.677,0,0,1,.062,2.223,4.06,4.06,0,0,0-1.063,2.706,3.99,3.99,0,0,0,2.565,3.725,3.355,3.355,0,0,0,.429.16,3.7,3.7,0,0,0,2.841-.346,8.5,8.5,0,0,0,1.049-.793,5.791,5.791,0,0,0,1.294-2.028,7.185,7.185,0,0,0-1.413-7.088c-1.572-1.764-5.5-3.276-9.3-2.1s-6.682,4.061-8.909,8.516a17.344,17.344,0,0,0-1.6,7.687h0c0,.045,0,.091,0,.136,0,.12,0,.241.008.362,0,.1.006.191.01.287.005.118.012.237.019.356.006.1.012.2.02.3.008.115.019.231.03.346s.019.208.03.312.026.219.039.329.026.221.041.333c.013.091.028.182.042.273q.113.741.282,1.485c.013.057.025.114.038.17.036.152.076.3.116.456.017.065.033.13.051.195.041.15.085.3.129.449.02.066.039.132.059.2.046.15.1.3.145.448.022.065.043.13.066.2.052.15.106.3.162.449.023.063.047.126.072.188q.087.227.182.453l.075.176q.1.231.2.46l.074.156c.075.159.151.317.23.475l.062.118c.087.169.176.338.269.5l.02.035c.216.386.444.768.691,1.143,4.062,6.158,9.564,6.551,9.564,6.551h20.3a16.3,16.3,0,0,1-6.663-5.937" transform="translate(-1298.763 -427.437)" fill="#fe0"/><path d="M3801.282,1430.942a.57.57,0,0,0,.611.611h2.644c2.017,0,3.255-.794,3.759-2.369a13.207,13.207,0,0,0,0-5.654c-.5-1.574-1.742-2.369-3.759-2.369h-2.644a.57.57,0,0,0-.611.611Zm1.36-.749v-7.672a.081.081,0,0,1,.091-.092h1.712c1.375,0,2.17.428,2.537,1.558a11.592,11.592,0,0,1,0,4.738c-.367,1.131-1.161,1.559-2.537,1.559h-1.712a.081.081,0,0,1-.091-.092m8.16.749a.57.57,0,0,0,.612.611h5.349a.635.635,0,1,0,0-1.268h-4.509a.081.081,0,0,1-.091-.092v-3.163a.081.081,0,0,1,.091-.092h3.76a.635.635,0,1,0,0-1.268h-3.76a.081.081,0,0,1-.091-.092v-3.056a.081.081,0,0,1,.091-.092h4.509a.635.635,0,1,0,0-1.269h-5.349a.57.57,0,0,0-.612.611Zm12.226-1.681a3.631,3.631,0,0,0,6.51.764.862.862,0,0,0,.123-.428.6.6,0,0,0-.627-.627.693.693,0,0,0-.611.382,2.154,2.154,0,0,1-1.925,1.1,2.109,2.109,0,0,1-2.14-1.6,12.8,12.8,0,0,1,0-4.982,2.109,2.109,0,0,1,2.14-1.6,2.154,2.154,0,0,1,1.925,1.1.693.693,0,0,0,.611.382.6.6,0,0,0,.627-.626.864.864,0,0,0-.123-.428,3.631,3.631,0,0,0-6.51.764,14.68,14.68,0,0,0,0,5.807m7.9,1.742a.614.614,0,0,0,.642.626.664.664,0,0,0,.657-.489l.7-2h4.264l.7,2a.665.665,0,0,0,.657.489.614.614,0,0,0,.642-.626.98.98,0,0,0-.061-.306l-3.148-8.849a.949.949,0,0,0-.917-.764c-.458,0-.718.275-.886.764l-3.194,8.849a.994.994,0,0,0-.061.306m2.445-3.118,1.681-4.722h.046l1.651,4.722Zm7.61,3.056a.623.623,0,0,0,.643.688.612.612,0,0,0,.626-.687v-6.77h.046l2.384,5.272c.245.535.428.673.78.673s.55-.138.794-.673l2.384-5.272h.046v6.77a.611.611,0,0,0,.626.688.623.623,0,0,0,.642-.687v-9.017a.744.744,0,0,0-.764-.84c-.413,0-.626.244-.84.733l-2.828,6.5h-.045l-2.874-6.5c-.214-.489-.443-.733-.855-.733a.745.745,0,0,0-.765.84Zm11.539-.046a.682.682,0,1,0,1.36,0v-3.439a.081.081,0,0,1,.092-.091h2.369a3.11,3.11,0,1,0,0-6.2h-3.21a.57.57,0,0,0-.611.611Zm3.774-4.8h-2.323a.081.081,0,0,1-.092-.091v-3.484a.081.081,0,0,1,.092-.092h2.323a1.843,1.843,0,1,1,0,3.667m5.272,4.8a.682.682,0,1,0,1.36,0v-9.078a.682.682,0,1,0-1.36,0Zm3.927.046a.636.636,0,1,0,1.269,0v-7.3h.046l4.432,7.29c.26.443.535.7.932.7a.729.729,0,0,0,.749-.825v-9.032a.636.636,0,1,0-1.269,0v7.335h-.061l-4.432-7.32c-.259-.443-.52-.7-.917-.7a.729.729,0,0,0-.749.825Zm9.215.061a.614.614,0,0,0,.642.626.664.664,0,0,0,.657-.489l.7-2h4.264l.7,2a.665.665,0,0,0,.657.489.614.614,0,0,0,.642-.626.966.966,0,0,0-.062-.306l-3.148-8.849a.949.949,0,0,0-.917-.764c-.458,0-.718.275-.887.764l-3.194,8.849a.994.994,0,0,0-.061.306m2.445-3.118,1.681-4.722h.045l1.65,4.722Zm10.743,3.836c2.521,0,3.805-1.314,3.805-3.117,0-1.666-.993-2.6-3.087-2.919l-.5-.076c-1.62-.244-2.155-.795-2.155-1.666,0-.963.657-1.681,1.971-1.681a5.172,5.172,0,0,1,2.109.52,1.208,1.208,0,0,0,.443.122.6.6,0,0,0,.611-.611.687.687,0,0,0-.366-.6,5.507,5.507,0,0,0-2.751-.7c-2.078,0-3.393,1.177-3.393,3.026,0,1.635.978,2.568,3.072,2.888l.5.076c1.682.26,2.17.81,2.17,1.7,0,1.07-.856,1.773-2.323,1.773a4.746,4.746,0,0,1-2.583-.81.83.83,0,0,0-.428-.138.639.639,0,0,0-.657.642.717.717,0,0,0,.336.6,5.8,5.8,0,0,0,3.225.978" transform="translate(-3681.561 -1376.239)" fill="#002581"/><path d="M3796.171,709.43a4.637,4.637,0,0,0,4.765,3.312,4.476,4.476,0,0,0,4.14-2.242,1.428,1.428,0,0,0,.2-.687,1.061,1.061,0,0,0-1.09-1.091,1.228,1.228,0,0,0-1.05.646,2.585,2.585,0,0,1-4.665-.565,19.022,19.022,0,0,1,0-6.3,2.586,2.586,0,0,1,4.665-.565,1.227,1.227,0,0,0,1.05.646,1.057,1.057,0,0,0,1.09-1.07,1.441,1.441,0,0,0-.2-.707,4.476,4.476,0,0,0-4.14-2.242,4.637,4.637,0,0,0-4.765,3.312,18.759,18.759,0,0,0,0,7.553m11.066-3.776a11,11,0,0,0,.4,3.8,5.169,5.169,0,0,0,9.633,0,18.049,18.049,0,0,0,0-7.593,5.169,5.169,0,0,0-9.633,0,11.006,11.006,0,0,0-.4,3.8m8.017,0a9.822,9.822,0,0,1-.282,3.15,2.657,2.657,0,0,1-5.029,0,17.694,17.694,0,0,1,0-6.3,2.657,2.657,0,0,1,5.029,0,9.822,9.822,0,0,1,.282,3.15m5.049,5.8a1.1,1.1,0,1,0,2.2,0v-7.533h.1l2.524,5.695c.364.828.727,1.07,1.313,1.07.565,0,.929-.242,1.292-1.07l2.5-5.695h.1v7.533a1.1,1.1,0,1,0,2.2,0V700.121a1.276,1.276,0,0,0-1.313-1.434c-.707,0-1.03.383-1.393,1.232l-3.312,7.614h-.081l-3.392-7.614c-.384-.848-.707-1.232-1.414-1.232a1.291,1.291,0,0,0-1.333,1.434Zm20.235,1.292a4.764,4.764,0,0,0,5.069-5.049v-7.755a1.193,1.193,0,1,0-2.383,0v7.714a2.623,2.623,0,0,1-2.686,2.948c-1.555,0-2.666-1.05-2.666-2.948v-7.714a1.193,1.193,0,1,0-2.383,0v7.755a4.758,4.758,0,0,0,5.049,5.049m8.017-1.292a1.1,1.1,0,1,0,2.2,0v-8.562h.081l5.029,8.563c.444.767.888,1.171,1.6,1.171a1.291,1.291,0,0,0,1.333-1.434V699.858a1.1,1.1,0,1,0-2.2,0v8.562h-.06l-5.049-8.562c-.444-.767-.889-1.171-1.575-1.171a1.3,1.3,0,0,0-1.353,1.434Zm13.268-.081a1.193,1.193,0,1,0,2.383,0v-11.43a1.193,1.193,0,1,0-2.383,0Zm8.138-10.441a.107.107,0,0,1,.121.121v10.319a1.193,1.193,0,1,0,2.383,0V701.049a.107.107,0,0,1,.121-.121h2.726a1.079,1.079,0,1,0,0-2.141h-8.078a1.079,1.079,0,1,0,0,2.141Zm6,10.582a1.1,1.1,0,0,0,1.151,1.111,1.162,1.162,0,0,0,1.131-.828l.727-2.141h5.25l.747,2.141a1.163,1.163,0,0,0,1.131.828,1.1,1.1,0,0,0,1.152-1.111,1.457,1.457,0,0,0-.081-.445l-3.958-11.026c-.3-.848-.768-1.353-1.6-1.353s-1.272.5-1.575,1.353l-4,11.026a1.457,1.457,0,0,0-.081.445m3.756-3.978,1.858-5.352h.06l1.858,5.352Zm1.676-11.612a1.139,1.139,0,0,0-.283.727.832.832,0,0,0,.828.828.983.983,0,0,0,.767-.384l1.191-1.272a.99.99,0,0,0,.283-.707.871.871,0,0,0-.909-.868.92.92,0,0,0-.707.343Zm16.68,16.7a1.1,1.1,0,0,0,1.151-1.131,1.555,1.555,0,0,0-.182-.727l-2.242-4.18a3.9,3.9,0,0,0,2.443-3.7,4.089,4.089,0,0,0-4.383-4.1h-4.442a1,1,0,0,0-1.071,1.07v11.511a1.193,1.193,0,1,0,2.384,0v-4.281a.107.107,0,0,1,.121-.121h2.564l2.484,4.907a1.229,1.229,0,0,0,1.171.747m-3.292-7.795h-2.928a.107.107,0,0,1-.121-.121v-3.655a.107.107,0,0,1,.121-.121h2.928a1.954,1.954,0,1,1,0,3.9m7.068,6.543a1.193,1.193,0,1,0,2.383,0v-11.43a1.193,1.193,0,1,0-2.383,0Zm4.483.142a1.1,1.1,0,0,0,1.151,1.111,1.162,1.162,0,0,0,1.131-.828l.727-2.141h5.251l.747,2.141a1.163,1.163,0,0,0,1.131.828,1.1,1.1,0,0,0,1.151-1.111,1.45,1.45,0,0,0-.081-.445l-3.958-11.026c-.3-.848-.767-1.353-1.6-1.353s-1.272.5-1.575,1.353l-4,11.026a1.449,1.449,0,0,0-.081.445m3.756-3.978,1.858-5.352h.06l1.858,5.352Z" transform="translate(-3676.239 -672.379)" fill="#002581"/><path d="M3801.283,346.107a.57.57,0,0,0,.611.612h5.349a.635.635,0,1,0,0-1.269h-4.509a.081.081,0,0,1-.092-.092v-3.163a.081.081,0,0,1,.092-.092h3.76a.635.635,0,1,0,0-1.268h-3.76a.081.081,0,0,1-.092-.092v-3.056a.081.081,0,0,1,.092-.092h4.509a.635.635,0,1,0,0-1.268h-5.349a.57.57,0,0,0-.611.611Zm11.736.779c2.521,0,3.805-1.314,3.805-3.117,0-1.666-.993-2.6-3.087-2.919l-.5-.076c-1.62-.245-2.155-.795-2.155-1.666,0-.963.657-1.681,1.972-1.681a5.17,5.17,0,0,1,2.109.52,1.2,1.2,0,0,0,.444.122.6.6,0,0,0,.611-.611.688.688,0,0,0-.367-.6,5.51,5.51,0,0,0-2.751-.7c-2.078,0-3.393,1.177-3.393,3.026,0,1.635.979,2.567,3.072,2.888l.5.076c1.68.26,2.17.81,2.17,1.7,0,1.07-.856,1.773-2.323,1.773a4.747,4.747,0,0,1-2.583-.81.836.836,0,0,0-.428-.138.639.639,0,0,0-.657.642.718.718,0,0,0,.336.6,5.811,5.811,0,0,0,3.225.978m5.822-2.46a3.632,3.632,0,0,0,6.51.764.861.861,0,0,0,.123-.428.6.6,0,0,0-.627-.627.691.691,0,0,0-.611.382,2.157,2.157,0,0,1-1.926,1.1,2.109,2.109,0,0,1-2.14-1.6,12.818,12.818,0,0,1,0-4.982,2.109,2.109,0,0,1,2.14-1.6,2.157,2.157,0,0,1,1.926,1.1.691.691,0,0,0,.611.382.6.6,0,0,0,.627-.627.86.86,0,0,0-.123-.428,3.631,3.631,0,0,0-6.51.764,14.667,14.667,0,0,0,0,5.807m12.119,2.46a3.409,3.409,0,0,0,3.53-2.46,14.667,14.667,0,0,0,0-5.807,3.752,3.752,0,0,0-7.045,0,14.667,14.667,0,0,0,0,5.807,3.4,3.4,0,0,0,3.515,2.46m0-1.268a2.125,2.125,0,0,1-2.185-1.6,12.793,12.793,0,0,1,0-4.982,2.3,2.3,0,0,1,4.386,0,12.793,12.793,0,0,1,0,4.982,2.131,2.131,0,0,1-2.2,1.6m6.021.428a.614.614,0,0,0,.657.672h5.3a.635.635,0,1,0,0-1.269h-4.508a.081.081,0,0,1-.092-.092v-8.375a.671.671,0,0,0-.687-.734.66.66,0,0,0-.673.734Zm7.442.122a.614.614,0,0,0,.642.627.666.666,0,0,0,.657-.489l.7-2h4.264l.7,2a.666.666,0,0,0,.657.489.614.614,0,0,0,.642-.627.983.983,0,0,0-.061-.306l-3.148-8.848a.948.948,0,0,0-.917-.764c-.458,0-.718.275-.886.764l-3.194,8.848a.983.983,0,0,0-.061.306m2.445-3.117,1.681-4.722h.046l1.65,4.722Z" transform="translate(-3681.562 -325.571)" fill="#002581"/></g></g></svg>