<svg width="15" height="14" viewBox="0 0 15 14" fill="none" xmlns="http://www.w3.org/2000/svg">
<path d="M0.959627 7.26977L7.80615 13.1306C7.85871 13.1753 7.92576 13.2003 7.99644 13.2003L9.60024 13.2003C9.73434 13.2003 9.79596 13.0359 9.69448 12.9501L3.34812 7.51643L13.9532 7.51643C14.0329 7.51643 14.0981 7.45209 14.0981 7.37344L14.0981 6.30101C14.0981 6.22237 14.0329 6.15802 13.9532 6.15802L3.34993 6.15802L9.69629 0.724372C9.79777 0.636791 9.73616 0.474139 9.60205 0.474139L7.94388 0.474139C7.90945 0.474139 7.87502 0.48665 7.84965 0.509886L0.959627 6.40468C0.896891 6.45849 0.846589 6.52494 0.812118 6.59956C0.777648 6.67418 0.759811 6.75523 0.759811 6.83723C0.759811 6.91923 0.777648 7.00027 0.812118 7.07489C0.846589 7.14951 0.896891 7.21597 0.959627 7.26977Z" fill="currentColor"/>
</svg>
