<svg width="12" height="12" viewBox="0 0 12 12" fill="none" xmlns="http://www.w3.org/2000/svg">
<path d="M11.7197 10.1669L9.00019 7.44744C9.42414 6.7516 9.64777 5.95224 9.64642 5.13743C9.64642 2.67845 7.5156 0.54834 5.05662 0.54834C4.47199 0.548245 3.89308 0.663326 3.35294 0.887008C2.8128 1.11069 2.32202 1.43859 1.90862 1.85198C1.49523 2.26537 1.16733 2.75616 0.943649 3.2963C0.719966 3.83644 0.604886 4.41535 0.604981 4.99998C0.604981 7.45823 2.73581 9.58906 5.19407 9.58906C5.98203 9.58977 6.75589 9.38009 7.43572 8.98169L10.1696 11.717C10.2982 11.8452 10.4723 11.9173 10.6539 11.9173C10.8355 11.9173 11.0097 11.8452 11.1382 11.717L11.8168 11.0384C12.0838 10.7714 11.9867 10.4339 11.7197 10.1669ZM1.97516 4.99998C1.97506 4.59525 2.0547 4.19447 2.20951 3.82053C2.36433 3.44659 2.59129 3.10681 2.87744 2.82059C3.16359 2.53437 3.50332 2.30733 3.87723 2.15243C4.25113 1.99753 4.65189 1.9178 5.05662 1.9178C6.75926 1.9178 8.27625 3.43406 8.27625 5.13743C8.27605 5.95481 7.95126 6.73867 7.37329 7.31664C6.79531 7.89462 6.01145 8.21941 5.19407 8.2196C3.49142 8.21888 1.97516 6.7019 1.97516 4.99998Z" fill="currentColor"/>
</svg>
