<svg xmlns="http://www.w3.org/2000/svg" viewBox="0 0 411.67 64.81"><defs><style>.cls-1{fill:#fff;}</style></defs><g id="Layer_2" data-name="Layer 2"><g id="Layer_1-2" data-name="Layer 1"><path d="M27.9,41.48h13V24.53H23.3V37l-.12-.1-10.31,11H0v17H17.6V52.43l10.3-11Z"/><path class="cls-1" d="M89.54,47.83,79,36.86V24.53H67.11L56.9,13.93V1.23H39.3v17H51.53L61.38,28.4v9.27L51.82,47.83H39.3v17H56.9V52.06l9.95-10.58H74l9.66,10V64.78h17.61v-17Z"/><path d="M137.41,57.65l-1.88-1.11a8.45,8.45,0,0,1-2.52-2,3.87,3.87,0,0,1-.75-2.32A4,4,0,0,1,133.68,49a5.41,5.41,0,0,1,3.69-1.23,7.12,7.12,0,0,1,4,1.17v2.7a5.82,5.82,0,0,0-4-1.73,3.39,3.39,0,0,0-2,.55,1.6,1.6,0,0,0-.78,1.38,2.08,2.08,0,0,0,.57,1.4A7.06,7.06,0,0,0,137,54.6l1.88,1.08C141,56.89,142,58.44,142,60.31a4.14,4.14,0,0,1-1.39,3.25A5.16,5.16,0,0,1,137,64.81a7.81,7.81,0,0,1-4.66-1.51v-3A5.88,5.88,0,0,0,137,62.71a2.94,2.94,0,0,0,1.93-.62,1.93,1.93,0,0,0,.78-1.56Q139.69,59,137.41,57.65Zm34.8-9.92a9.5,9.5,0,0,1,6.67,2.45,8.3,8.3,0,0,1,0,12.22,9.79,9.79,0,0,1-6.78,2.41,9.18,9.18,0,0,1-6.51-2.41,7.89,7.89,0,0,1-2.61-6,8.08,8.08,0,0,1,2.63-6.17A9.31,9.31,0,0,1,172.21,47.73Zm.1,2.27a6.83,6.83,0,0,0-4.87,1.78,6,6,0,0,0-1.91,4.57,5.9,5.9,0,0,0,1.91,4.48,7.33,7.33,0,0,0,9.62,0A6,6,0,0,0,179,56.25a5.86,5.86,0,0,0-1.94-4.45A6.71,6.71,0,0,0,172.31,50Zm29-2h2.48V62.45h7.78v2.17H201.33Zm43.08,0h2.49v9.45a11,11,0,0,1-.29,2.9,6,6,0,0,1-.72,1.62,5.24,5.24,0,0,1-1,1.16,8.12,8.12,0,0,1-5.37,1.71,8.25,8.25,0,0,1-5.42-1.69A5.36,5.36,0,0,1,233,61.94a5.79,5.79,0,0,1-.7-1.59,11.16,11.16,0,0,1-.28-3V48h2.48v9.45a6.77,6.77,0,0,0,.56,3.26,3.93,3.93,0,0,0,1.7,1.47,6,6,0,0,0,2.68.56A5.56,5.56,0,0,0,243,61.6a3.4,3.4,0,0,0,1.05-1.41,8.17,8.17,0,0,0,.32-2.77Zm22.15,0H281v2.12h-6V64.61h-2.49V50.07h-5.92V48Zm34.54,0h2.47V64.62H301.1Zm32.26-.24A9.5,9.5,0,0,1,340,50.18a7.92,7.92,0,0,1,2.67,6.12A7.83,7.83,0,0,1,340,62.4a9.75,9.75,0,0,1-6.78,2.41,9.22,9.22,0,0,1-6.51-2.41,7.91,7.91,0,0,1-2.6-6,8.07,8.07,0,0,1,2.62-6.17,9.31,9.31,0,0,1,6.62-2.45Zm.1,2.27a6.87,6.87,0,0,0-4.88,1.78,6,6,0,0,0-1.91,4.57,5.87,5.87,0,0,0,1.92,4.48,7.33,7.33,0,0,0,9.62,0,6,6,0,0,0,1.93-4.54,5.86,5.86,0,0,0-1.93-4.45,6.71,6.71,0,0,0-4.75-1.8Zm42.69-2h2.35V64.62h-2.13L364.82,51.8V64.62h-2.33V48h2L376.15,60.9V48ZM406,57.64l-1.89-1.1a8.38,8.38,0,0,1-2.51-2,3.81,3.81,0,0,1-.75-2.32A4,4,0,0,1,402.27,49,5.43,5.43,0,0,1,406,47.76a7.17,7.17,0,0,1,4,1.17v2.7a5.86,5.86,0,0,0-4-1.73,3.41,3.41,0,0,0-2,.54,1.63,1.63,0,0,0-.78,1.39,2.1,2.1,0,0,0,.57,1.4,7.29,7.29,0,0,0,1.85,1.37l1.89,1.08q3.17,1.82,3.16,4.63a4.16,4.16,0,0,1-1.39,3.25,5.24,5.24,0,0,1-3.62,1.25,7.77,7.77,0,0,1-4.67-1.52v-3a5.9,5.9,0,0,0,4.64,2.44,3,3,0,0,0,1.94-.62,1.93,1.93,0,0,0,.77-1.57c0-1-.76-2-2.27-2.88ZM132.27,1.74h5.27V37.26h-5.27Zm42.76,0h5V37.26H175.5L150.85,9.91V37.26h-5V1.74h4.27L175,29.32V1.74ZM188,37.21V1.74h12.43c5,0,9,.73,11.91,2.18a16.91,16.91,0,0,1,7,6.39,17.26,17.26,0,0,1,2.58,9.2,16.84,16.84,0,0,1-1.42,6.82,17.25,17.25,0,0,1-4.07,5.72,17.92,17.92,0,0,1-6.25,3.83,18.93,18.93,0,0,1-3.83,1.06,52.56,52.56,0,0,1-6.65.27ZM199.86,6.27h-6.6V32.68H200a27.87,27.87,0,0,0,6.15-.52,14.52,14.52,0,0,0,3.65-1.32,12.6,12.6,0,0,0,2.68-2,12.93,12.93,0,0,0,3.91-9.64,12,12,0,0,0-4-9.33A13.17,13.17,0,0,0,209,7.69a14.33,14.33,0,0,0-3.63-1.14,37.66,37.66,0,0,0-5.51-.28Zm28.66-4.53h5.28V37.26h-5.28Zm13.46,0h20.91V6.27H247.26V17.1h15.09v4.55H247.26v11h16.12v4.53H242V1.74Z"/><path class="cls-1" d="M281.18,38.55v-31H268.54V.41H302v7.1H289.15v31ZM307,38.49V.46H330.6v7.1H315v8.25h15.09v7.13H315V31.4H331.1v7.1H307Zm49.44.46a22.74,22.74,0,0,1-11.15-2.56,19.33,19.33,0,0,1-7.3-7.06,18.77,18.77,0,0,1-2.68-9.72,18.36,18.36,0,0,1,6.15-14A21.55,21.55,0,0,1,356.56,0,35.71,35.71,0,0,1,370,3l.81.33v8.53l-2-1.1a24.91,24.91,0,0,0-12-3.39,13.52,13.52,0,0,0-9.6,3.5,11.22,11.22,0,0,0-3.77,8.71,11.13,11.13,0,0,0,3.7,8.68,13.6,13.6,0,0,0,9.61,3.41,23.34,23.34,0,0,0,12.37-3.76l2.06-1.28v8.71l-.69.37A29.88,29.88,0,0,1,356.46,39Zm47.27-.41V23.09H385.68V38.54h-7.95V.46h7.95V15.81h18.05V.46h7.94V38.54Z"/></g></g></svg>