<?xml version="1.0" encoding="UTF-8"?><svg id="Layer_1" xmlns="http://www.w3.org/2000/svg" viewBox="0 0 94.66 75.72"><defs><style>.cls-1{fill:#313232;}</style></defs><path class="cls-1" d="M85.19,0H9.47C6.96,0,4.55,1,2.77,2.77,1,4.55,0,6.96,0,9.47v56.79c0,2.51,1,4.92,2.77,6.69,1.78,1.77,4.18,2.77,6.69,2.77H85.19c2.51,0,4.92-1,6.69-2.77,1.78-1.78,2.77-4.18,2.77-6.69V9.47c0-2.51-1-4.92-2.77-6.69-1.78-1.78-4.18-2.77-6.69-2.77Zm0,22.24l-37.86,25.24L9.47,22.24V10.87l37.86,25.24L85.19,10.87v11.37Z"/></svg>